<svg width="161" height="18" viewBox="0 0 161 18" fill="none" xmlns="http://www.w3.org/2000/svg">
<path d="M12.0935 13.808H5.42147L4.31747 17H0.789466L6.81347 0.223999H10.7255L16.7495 17H13.1975L12.0935 13.808ZM11.1815 11.12L8.75747 4.112L6.33347 11.12H11.1815ZM39.8091 17H36.4492L28.8411 5.504V17H25.4811V0.223999H28.8411L36.4492 11.744V0.223999H39.8091V17ZM57.3856 17.168C55.8176 17.168 54.3776 16.8 53.0656 16.064C51.7536 15.328 50.7136 14.312 49.9456 13.016C49.1776 11.704 48.7936 10.224 48.7936 8.576C48.7936 6.944 49.1776 5.48 49.9456 4.184C50.7136 2.872 51.7536 1.848 53.0656 1.112C54.3776 0.375999 55.8176 0.0079999 57.3856 0.0079999C58.9696 0.0079999 60.4096 0.375999 61.7056 1.112C63.0176 1.848 64.0496 2.872 64.8016 4.184C65.5696 5.48 65.9536 6.944 65.9536 8.576C65.9536 10.224 65.5696 11.704 64.8016 13.016C64.0496 14.312 63.0176 15.328 61.7056 16.064C60.3936 16.8 58.9536 17.168 57.3856 17.168ZM57.3856 14.168C58.3936 14.168 59.2816 13.944 60.0496 13.496C60.8176 13.032 61.4176 12.376 61.8496 11.528C62.2816 10.68 62.4976 9.696 62.4976 8.576C62.4976 7.456 62.2816 6.48 61.8496 5.648C61.4176 4.8 60.8176 4.152 60.0496 3.704C59.2816 3.256 58.3936 3.032 57.3856 3.032C56.3776 3.032 55.4816 3.256 54.6976 3.704C53.9296 4.152 53.3296 4.8 52.8976 5.648C52.4656 6.48 52.2496 7.456 52.2496 8.576C52.2496 9.696 52.4656 10.68 52.8976 11.528C53.3296 12.376 53.9296 13.032 54.6976 13.496C55.4816 13.944 56.3776 14.168 57.3856 14.168ZM89.2613 17H85.9013L78.2933 5.504V17H74.9333V0.223999H78.2933L85.9013 11.744V0.223999H89.2613V17ZM112.382 0.248L106.718 11.168V17H103.358V11.168L97.6698 0.248H101.462L105.062 7.904L108.638 0.248H112.382ZM139.064 0.248V17H135.704V6.104L131.216 17H128.672L124.16 6.104V17H120.8V0.248H124.616L129.944 12.704L135.272 0.248H139.064ZM154.65 17.168C153.482 17.168 152.426 16.968 151.482 16.568C150.554 16.168 149.818 15.592 149.274 14.84C148.73 14.088 148.45 13.2 148.434 12.176H152.034C152.082 12.864 152.322 13.408 152.754 13.808C153.202 14.208 153.81 14.408 154.578 14.408C155.362 14.408 155.978 14.224 156.426 13.856C156.874 13.472 157.098 12.976 157.098 12.368C157.098 11.872 156.946 11.464 156.642 11.144C156.338 10.824 155.954 10.576 155.49 10.4C155.042 10.208 154.418 10 153.618 9.776C152.53 9.456 151.642 9.144 150.954 8.84C150.282 8.52 149.698 8.048 149.202 7.424C148.722 6.784 148.482 5.936 148.482 4.88C148.482 3.888 148.73 3.024 149.226 2.288C149.722 1.552 150.418 0.991999 151.314 0.607999C152.21 0.208 153.234 0.0079999 154.386 0.0079999C156.114 0.0079999 157.514 0.432 158.586 1.28C159.674 2.112 160.274 3.28 160.386 4.784H156.69C156.658 4.208 156.41 3.736 155.946 3.368C155.498 2.984 154.898 2.792 154.146 2.792C153.49 2.792 152.962 2.96 152.562 3.296C152.178 3.632 151.986 4.12 151.986 4.76C151.986 5.208 152.13 5.584 152.418 5.888C152.722 6.176 153.09 6.416 153.522 6.608C153.97 6.784 154.594 6.992 155.394 7.232C156.482 7.552 157.37 7.872 158.058 8.192C158.746 8.512 159.338 8.992 159.834 9.632C160.33 10.272 160.578 11.112 160.578 12.152C160.578 13.048 160.346 13.88 159.882 14.648C159.418 15.416 158.738 16.032 157.842 16.496C156.946 16.944 155.882 17.168 154.65 17.168Z" fill="#9E1DFF"/>
</svg>
